<?xml version="1.0" standalone="no"?>
<!DOCTYPE svg PUBLIC "-//W3C//DTD SVG 20010904//EN"
 "http://www.w3.org/TR/2001/REC-SVG-20010904/DTD/svg10.dtd">
<svg version="1.0" xmlns="http://www.w3.org/2000/svg"
 width="466.000000pt" height="238.000000pt" viewBox="0 0 466.000000 238.000000"
 preserveAspectRatio="xMidYMid meet">

<g transform="translate(0.000000,238.000000) scale(0.100000,-0.100000)"
fill="#000000" stroke="none">
<path d="M4204 2355 c-20 -30 -12 -70 21 -116 14 -18 24 -34 22 -35 -1 -1 -29
2 -62 8 -141 23 -239 -7 -473 -143 -312 -183 -488 -250 -832 -318 -436 -86
-854 -68 -1305 55 -215 59 -349 119 -586 260 -145 87 -242 132 -314 145 -62
12 -187 5 -231 -11 -30 -12 -31 1 -4 38 33 46 35 76 7 108 l-25 28 -55 -57
c-58 -61 -64 -63 -150 -46 -72 15 -86 5 -80 -54 4 -36 1 -46 -21 -69 -15 -14
-47 -36 -71 -47 -25 -12 -45 -26 -45 -31 0 -6 41 -10 101 -10 123 0 141 -7
128 -52 -6 -18 -10 -67 -10 -108 0 -300 260 -581 658 -709 441 -143 1124 -220
1708 -192 404 19 701 56 990 126 370 89 560 184 727 364 143 155 209 364 162
520 -8 29 -12 56 -9 59 4 4 49 6 100 5 52 -2 97 1 100 7 3 5 -14 19 -37 31
-24 12 -55 33 -70 47 -24 22 -28 34 -28 80 l0 55 -52 -7 c-29 -3 -68 -9 -86
-12 -31 -6 -38 -2 -85 50 -29 31 -58 56 -64 56 -7 0 -20 -11 -29 -25z m61 -89
c28 -15 35 -27 35 -58 0 -34 6 -35 30 -6 15 19 20 20 33 9 13 -10 14 -17 5
-37 -10 -20 -9 -27 2 -34 8 -5 18 -6 22 -4 16 10 7 -10 -14 -33 -12 -13 -17
-23 -12 -23 5 0 27 20 47 45 42 50 52 54 60 25 3 -10 20 -26 38 -34 l34 -14
-43 -1 c-23 -1 -69 -12 -102 -26 -61 -26 -105 -32 -114 -16 -3 5 1 14 9 21 28
23 17 73 -30 146 -24 38 -44 80 -44 94 0 22 2 21 12 -9 7 -19 21 -39 32 -45z
m137 -12 c38 3 74 7 81 9 8 1 11 -9 9 -31 -2 -20 4 -46 17 -67 11 -19 16 -35
11 -35 -22 0 -40 14 -40 30 0 31 -16 32 -56 5 -42 -29 -63 -21 -44 15 10 19 9
26 -10 44 -20 20 -22 20 -34 4 -17 -23 -26 -23 -26 2 0 15 -33 47 -57 54 -1 1
-5 15 -8 31 -7 29 -6 29 40 -19 l48 -49 69 7z m-3991 41 c-3 -14 -17 -31 -31
-38 -14 -7 -26 -23 -28 -35 -4 -27 -18 -28 -31 -3 -8 15 -5 21 15 32 14 7 35
26 46 41 24 35 38 36 29 3z m29 7 c0 -10 -20 -49 -45 -86 -33 -51 -45 -79 -45
-107 0 -21 5 -41 10 -44 6 -3 10 -10 10 -16 0 -16 -63 -9 -110 12 -25 11 -67
23 -93 26 l-49 6 32 13 c17 8 34 23 37 34 8 29 17 25 59 -25 20 -25 41 -45 47
-45 6 0 0 11 -13 25 -20 21 -21 25 -6 25 22 0 30 23 17 48 -8 15 -7 23 5 33
12 10 17 9 30 -9 21 -30 34 -27 34 7 0 21 8 36 29 50 16 12 32 32 35 46 7 29
16 33 16 7z m-190 -63 c55 -12 58 -16 33 -34 -14 -11 -15 -17 -6 -38 7 -14 9
-27 6 -30 -6 -7 -52 12 -74 30 -18 15 -29 8 -29 -19 0 -11 -11 -23 -26 -28
-38 -15 -40 -13 -13 16 18 20 24 36 23 70 -1 50 2 51 86 33z m542 -96 c47 -23
136 -71 197 -107 221 -131 370 -197 570 -252 485 -133 907 -146 1401 -44 253
53 466 134 685 261 315 183 345 194 494 187 108 -5 138 -16 147 -55 6 -21 2
-30 -14 -41 -48 -32 -8 -67 67 -59 25 2 54 8 64 12 27 11 48 -52 48 -144 0
-249 -205 -505 -508 -636 -165 -71 -481 -149 -768 -190 -465 -65 -1035 -72
-1500 -20 -396 45 -781 137 -970 232 -305 153 -491 422 -461 665 9 67 16 79
44 71 19 -5 21 -8 10 -22 -11 -14 -11 -14 3 -3 9 7 21 12 25 10 18 -5 74 21
80 37 4 10 -1 22 -15 31 -24 17 -27 42 -8 67 21 29 113 47 222 44 95 -2 105
-5 187 -44z"/>
<path d="M3745 1881 c-99 -24 -165 -104 -165 -200 0 -39 9 -54 63 -101 21 -18
26 -20 21 -7 -5 14 -1 17 22 17 15 0 58 10 95 22 58 18 70 20 84 8 16 -13 16
-15 -2 -21 -17 -7 -17 -8 0 -8 17 -1 17 -3 -2 -29 -11 -16 -40 -39 -65 -52
-44 -24 -44 -24 -84 -6 -53 24 -82 10 -82 -38 0 -28 8 -40 44 -70 24 -20 48
-36 52 -36 4 0 -1 7 -12 15 -18 13 -16 14 26 15 98 1 233 99 246 179 4 27 10
38 18 34 6 -4 3 5 -6 20 -10 15 -25 38 -34 53 -32 48 -114 69 -178 44 -38 -14
-32 -2 7 15 17 8 26 14 19 15 -18 0 -66 -26 -81 -44 -16 -19 -51 -21 -51 -3 0
24 55 66 103 81 61 18 76 31 70 59 -11 43 -41 54 -108 38z"/>
<path d="M792 1848 c-46 -15 -92 -71 -92 -110 0 -25 11 -42 49 -79 28 -27 68
-57 90 -68 50 -26 55 -35 34 -56 -24 -25 -120 -16 -143 13 -10 12 -21 18 -25
14 -3 -4 -6 -2 -4 3 4 18 -19 62 -36 69 -45 17 -75 -8 -75 -63 0 -46 24 -79
87 -122 59 -41 170 -50 238 -20 44 20 75 61 75 100 0 11 5 23 10 26 6 3 10 1
10 -6 0 -7 3 -10 6 -7 3 4 -10 29 -28 57 -29 44 -48 60 -118 102 -13 8 -13 10
0 19 11 7 6 8 -16 4 -20 -4 -34 -1 -39 6 -18 29 66 41 101 15 10 -8 15 -15 10
-15 -13 0 104 -60 119 -60 7 0 18 7 26 16 19 23 -24 98 -81 137 -36 25 -56 32
-105 34 -33 1 -75 -3 -93 -9z m275 -134 c9 -23 -12 -37 -44 -30 l-28 8 25 19
c31 23 39 24 47 3z"/>
<path d="M4346 1727 c-42 -88 -60 -113 -140 -192 -102 -102 -201 -168 -339
-227 -51 -22 -78 -36 -62 -33 59 12 231 103 312 164 92 69 148 128 204 215 34
51 85 165 77 171 -2 1 -25 -43 -52 -98z"/>
<path d="M3877 1801 c3 -12 -3 -24 -18 -35 -13 -9 -18 -16 -12 -16 29 0 55 51
34 64 -5 4 -7 -2 -4 -13z"/>
<path d="M300 1768 c0 -30 80 -174 131 -236 61 -74 174 -167 262 -216 75 -42
207 -98 220 -93 6 2 -12 11 -39 22 -258 96 -467 279 -544 475 -24 61 -30 71
-30 48z"/>
<path d="M3305 1754 c-33 -14 -74 -30 -91 -35 -18 -5 -37 -16 -44 -24 -13 -16
-13 -19 25 -150 76 -260 72 -251 123 -294 26 -23 51 -41 56 -41 6 0 1 7 -10
15 -19 14 -19 14 1 15 38 0 195 53 216 73 17 16 23 17 30 6 5 -8 9 -9 9 -3 0
6 -7 17 -15 24 -8 7 -15 19 -15 26 0 8 -11 19 -24 25 -19 9 -38 6 -95 -15 -87
-31 -101 -32 -101 -5 0 11 -4 17 -10 14 -11 -7 -25 39 -16 53 3 5 33 20 67 32
33 13 77 34 96 47 29 20 38 22 45 11 15 -21 4 5 -17 40 -28 46 -51 48 -139 11
-85 -35 -93 -33 -102 23 -6 34 -4 36 37 52 24 10 64 20 91 23 60 7 86 32 72
71 -9 25 -14 27 -69 29 -46 2 -74 -3 -120 -23z"/>
<path d="M3518 1693 c5 -21 7 -23 10 -9 2 10 0 22 -6 28 -6 6 -7 0 -4 -19z"/>
<path d="M1315 1691 c-16 -10 -71 -55 -122 -100 -50 -44 -96 -81 -102 -81 -6
0 -16 -10 -22 -22 -7 -13 -25 -38 -40 -56 -40 -45 -37 -73 8 -108 20 -15 34
-23 30 -17 -3 5 16 31 43 58 l49 48 58 -13 c46 -10 54 -14 38 -21 -17 -6 -17
-8 -2 -8 11 -1 17 -9 17 -23 0 -46 21 -99 43 -108 12 -6 30 -16 40 -22 19 -14
48 -2 54 23 3 8 0 7 -7 -3 -11 -19 -45 -24 -54 -10 -3 5 4 16 15 25 16 15 19
30 20 119 0 143 14 258 30 269 10 6 11 9 2 9 -7 0 -13 6 -13 14 0 18 -27 46
-43 46 -7 0 -25 -8 -42 -19z m-35 -181 c0 -11 -7 -20 -15 -20 -18 0 -19 12 -3
28 16 16 18 15 18 -8z"/>
<path d="M1532 1635 c-27 -34 -67 -240 -59 -305 9 -75 37 -120 99 -157 30 -18
61 -33 68 -32 10 0 7 4 -5 9 -16 7 -12 9 19 9 104 2 193 112 236 292 20 86 27
101 34 78 13 -41 14 -43 15 -23 1 12 -6 27 -14 34 -8 7 -15 19 -15 26 0 7 -11
21 -25 30 -23 15 -27 15 -50 0 -15 -10 -28 -32 -35 -58 -55 -230 -90 -288
-161 -273 -23 5 -29 12 -30 33 0 23 -2 24 -8 8 -7 -18 -8 -18 -14 -2 -12 30
-7 97 12 191 18 89 30 107 43 63 6 -22 6 -22 7 -2 1 12 -6 27 -14 34 -8 7 -15
18 -15 26 0 14 -38 44 -56 44 -7 0 -21 -11 -32 -25z"/>
<path d="M2901 1625 c-83 -75 -124 -249 -86 -364 13 -41 28 -61 67 -92 27 -21
55 -39 61 -39 7 0 5 5 -3 10 -12 7 -8 10 15 10 118 1 208 88 230 223 7 42 21
48 35 15 5 -13 9 -18 9 -11 1 19 -49 87 -69 95 -20 7 -105 -11 -165 -36 -37
-16 -42 -10 -24 27 10 21 10 21 -5 3 -9 -11 -16 -25 -16 -31 0 -6 -12 -22 -26
-36 l-26 -24 7 30 c12 51 46 123 66 141 16 14 25 15 65 5 42 -11 49 -10 68 8
18 17 25 19 36 8 9 -8 9 -5 -1 8 -9 11 -19 28 -22 38 -9 25 -68 47 -127 47
-43 0 -55 -5 -89 -35z m169 -285 c0 -18 -52 -60 -74 -60 -17 0 -18 -2 -6 -10
11 -7 7 -10 -17 -10 -18 0 -33 5 -33 11 0 5 -4 8 -9 5 -9 -6 -21 15 -21 35 0
10 41 -10 52 -26 5 -6 8 -4 8 6 0 8 19 25 43 36 49 25 57 27 57 13z"/>
<path d="M3453 1643 c9 -2 25 -2 35 0 9 3 1 5 -18 5 -19 0 -27 -2 -17 -5z"/>
<path d="M1422 1610 c0 -14 2 -19 5 -12 2 6 2 18 0 25 -3 6 -5 1 -5 -13z"/>
<path d="M3312 1580 c0 -14 2 -19 5 -12 2 6 2 18 0 25 -3 6 -5 1 -5 -13z"/>
<path d="M3810 1580 c-8 -5 -10 -10 -5 -10 6 0 17 5 25 10 8 5 11 10 5 10 -5
0 -17 -5 -25 -10z"/>
<path d="M4013 1555 c0 -22 2 -30 4 -17 2 12 2 30 0 40 -3 9 -5 -1 -4 -23z"/>
<path d="M2546 1528 c-18 -29 -47 -80 -64 -113 -16 -33 -42 -77 -56 -98 -14
-21 -26 -44 -26 -51 0 -8 -7 -30 -15 -49 -25 -60 -20 -80 26 -110 47 -31 61
-33 80 -10 13 15 12 15 -7 3 -12 -7 -29 -10 -39 -6 -17 6 -17 8 2 21 12 8 29
37 39 64 14 41 23 51 46 56 15 3 42 8 58 11 23 4 32 1 37 -13 14 -38 53 -92
82 -113 20 -13 29 -16 25 -7 -2 7 2 20 11 27 8 7 15 19 15 27 0 8 5 11 10 8
13 -8 13 -8 -9 49 -11 31 -21 44 -25 35 -3 -8 -3 2 0 21 3 22 2 30 -4 22 -6
-9 -17 17 -36 82 -15 53 -26 101 -24 108 2 7 -7 30 -19 51 -33 56 -64 51 -107
-15z m44 -168 c0 -11 -7 -20 -15 -20 -13 0 -14 4 -5 20 6 11 13 20 15 20 3 0
5 -9 5 -20z"/>
<path d="M2063 1549 c-48 -24 -90 -68 -99 -105 -10 -40 4 -70 47 -104 35 -29
48 -33 105 -34 66 -1 84 -11 84 -47 0 -21 -67 -49 -119 -49 -31 0 -44 7 -70
35 -34 38 -61 44 -85 19 -36 -35 -13 -97 52 -138 38 -24 102 -48 72 -27 -11 8
-1 11 41 11 129 0 219 58 219 141 0 27 4 38 11 33 21 -12 -10 35 -46 70 -27
27 -48 38 -97 47 l-63 13 30 12 c17 7 23 13 15 14 -9 0 -25 -7 -37 -15 -21
-15 -53 -11 -53 6 0 12 55 39 81 39 12 0 39 -5 60 -11 32 -10 42 -9 65 6 26
17 28 17 41 -1 7 -10 13 -13 13 -7 0 7 -5 15 -11 18 -5 4 -14 18 -20 31 -21
58 -157 82 -236 43z"/>
<path d="M3728 1553 c7 -3 16 -2 19 1 4 3 -2 6 -13 5 -11 0 -14 -3 -6 -6z"/>
<path d="M3140 1532 c0 -7 -15 -13 -32 -13 -32 -2 -33 -2 -4 -6 28 -5 56 11
43 24 -4 3 -7 1 -7 -5z"/>
<path d="M1412 1505 c0 -16 2 -22 5 -12 2 9 2 23 0 30 -3 6 -5 -1 -5 -18z"/>
<path d="M1632 1510 c0 -14 2 -19 5 -12 2 6 2 18 0 25 -3 6 -5 1 -5 -13z"/>
<path d="M2994 1508 l-19 -23 25 20 c14 11 27 21 29 22 2 2 0 3 -6 3 -5 0 -18
-10 -29 -22z"/>
<path d="M3978 1469 c-15 -21 -26 -39 -23 -39 7 0 58 70 54 74 -2 2 -16 -14
-31 -35z"/>
<path d="M3525 1479 c-16 -10 -25 -19 -19 -19 7 0 22 9 35 20 30 24 23 24 -16
-1z"/>
<path d="M1921 1454 c0 -11 3 -14 6 -6 3 7 2 16 -1 19 -3 4 -6 -2 -5 -13z"/>
<path d="M3460 1450 c-8 -5 -10 -10 -5 -10 6 0 17 5 25 10 8 5 11 10 5 10 -5
0 -17 -5 -25 -10z"/>
<path d="M990 1430 c-6 -11 -8 -20 -6 -20 3 0 10 9 16 20 6 11 8 20 6 20 -3 0
-10 -9 -16 -20z"/>
<path d="M2228 1433 c7 -3 16 -2 19 1 4 3 -2 6 -13 5 -11 0 -14 -3 -6 -6z"/>
<path d="M3410 1430 c-8 -5 -10 -10 -5 -10 6 0 17 5 25 10 8 5 11 10 5 10 -5
0 -17 -5 -25 -10z"/>
<path d="M2278 1423 c7 -3 16 -2 19 1 4 3 -2 6 -13 5 -11 0 -14 -3 -6 -6z"/>
<path d="M3919 1413 c-13 -16 -12 -17 4 -4 9 7 17 15 17 17 0 8 -8 3 -21 -13z"/>
<path d="M868 1383 c12 -2 30 -2 40 0 9 3 -1 5 -23 4 -22 0 -30 -2 -17 -4z"/>
<path d="M1188 1383 c7 -3 16 -2 19 1 4 3 -2 6 -13 5 -11 0 -14 -3 -6 -6z"/>
<path d="M1402 1365 c0 -16 2 -22 5 -12 2 9 2 23 0 30 -3 6 -5 -1 -5 -18z"/>
<path d="M2711 1364 c0 -11 3 -14 6 -6 3 7 2 16 -1 19 -3 4 -6 -2 -5 -13z"/>
<path d="M1139 1333 l-34 -38 38 34 c20 19 37 36 37 38 0 8 -8 0 -41 -34z"/>
<path d="M1602 1350 c0 -14 2 -19 5 -12 2 6 2 18 0 25 -3 6 -5 1 -5 -13z"/>
<path d="M3753 1353 c9 -2 25 -2 35 0 9 3 1 5 -18 5 -19 0 -27 -2 -17 -5z"/>
<path d="M3201 1294 c0 -11 3 -14 6 -6 3 7 2 16 -1 19 -3 4 -6 -2 -5 -13z"/>
<path d="M1401 1284 c0 -11 3 -14 6 -6 3 7 2 16 -1 19 -3 4 -6 -2 -5 -13z"/>
<path d="M3598 1278 c-10 -10 -14 -18 -9 -18 10 0 36 29 30 34 -2 1 -12 -6
-21 -16z"/>
<path d="M2148 1283 c7 -3 16 -2 19 1 4 3 -2 6 -13 5 -11 0 -14 -3 -6 -6z"/>
<path d="M1840 1235 c-12 -19 -36 -46 -53 -61 -18 -14 -23 -21 -12 -16 30 15
110 112 92 112 -3 0 -15 -16 -27 -35z"/>
<path d="M2578 1213 c6 -2 18 -2 25 0 6 3 1 5 -13 5 -14 0 -19 -2 -12 -5z"/>
<path d="M3418 1213 c7 -3 16 -2 19 1 4 3 -2 6 -13 5 -11 0 -14 -3 -6 -6z"/>
<path d="M2526 1194 c-9 -24 -2 -26 12 -4 7 11 8 20 3 20 -5 0 -12 -7 -15 -16z"/>
<path d="M3139 1183 c-13 -16 -12 -17 4 -4 9 7 17 15 17 17 0 8 -8 3 -21 -13z"/>
<path d="M2326 1173 c-6 -14 -5 -15 5 -6 7 7 10 15 7 18 -3 3 -9 -2 -12 -12z"/>
<path d="M2506 1145 c-9 -26 -7 -32 5 -12 6 10 9 21 6 23 -2 3 -7 -2 -11 -11z"/>
<path d="M3055 1140 c-13 -6 -15 -9 -5 -9 8 0 22 4 30 9 18 12 2 12 -25 0z"/>
<path d="M1673 1133 c9 -2 25 -2 35 0 9 3 1 5 -18 5 -19 0 -27 -2 -17 -5z"/>
<path d="M2260 1115 c-14 -8 -20 -14 -14 -15 5 0 19 7 30 15 24 18 16 19 -16
0z"/>
<path d="M2988 1123 c7 -3 16 -2 19 1 4 3 -2 6 -13 5 -11 0 -14 -3 -6 -6z"/>
<path d="M2108 1083 c12 -2 32 -2 45 0 12 2 2 4 -23 4 -25 0 -35 -2 -22 -4z"/>
<path d="M3308 913 c7 -3 16 -2 19 1 4 3 -2 6 -13 5 -11 0 -14 -3 -6 -6z"/>
<path d="M2150 856 c0 -34 4 -46 13 -44 6 3 13 14 15 26 4 26 31 34 94 30 l46
-3 -89 -164 c-49 -91 -89 -171 -89 -178 0 -10 28 -13 125 -13 l125 0 0 45 c0
46 -14 60 -25 26 -9 -30 -26 -38 -92 -46 -45 -5 -63 -4 -63 4 0 7 41 86 90
178 50 91 89 168 86 170 -2 3 -56 7 -120 10 l-116 6 0 -47z"/>
<path d="M2460 855 c0 -25 5 -45 10 -45 6 0 10 6 10 14 0 30 30 46 86 46 30 0
54 -3 54 -7 0 -5 -40 -82 -89 -173 -49 -90 -87 -168 -85 -172 3 -5 61 -8 130
-8 l124 0 0 45 c0 51 -13 58 -32 18 -11 -24 -22 -29 -72 -36 -32 -5 -64 -6
-71 -3 -10 3 12 53 76 170 49 90 89 168 89 174 0 11 -81 22 -167 22 l-63 0 0
-45z"/>
<path d="M2882 828 c-16 -40 -49 -119 -72 -176 -24 -58 -51 -107 -62 -113 -28
-15 -12 -29 32 -29 42 0 60 14 35 28 -15 8 -15 12 1 51 l16 42 80 -3 80 -3 16
-39 c12 -29 13 -41 4 -44 -7 -2 -12 -10 -12 -18 0 -10 15 -14 58 -14 33 0 64
-5 71 -12 8 -7 3 2 -9 20 -13 17 -27 32 -30 32 -3 0 -17 25 -29 55 -23 55 -23
56 -5 78 15 17 16 19 2 8 -9 -7 -21 -10 -25 -8 -5 3 -28 53 -53 111 -24 58
-49 106 -56 106 -7 0 -26 -33 -42 -72z m65 -93 l31 -75 -64 0 c-35 0 -64 3
-64 7 0 14 53 143 59 143 3 0 20 -34 38 -75z"/>
<path d="M3199 883 c-13 -16 -12 -17 4 -4 16 13 21 21 13 21 -2 0 -10 -8 -17
-17z"/>
<path d="M1640 881 c0 -5 9 -11 20 -14 19 -5 20 -14 20 -161 0 -145 -1 -156
-20 -166 -37 -20 -20 -30 49 -30 71 0 102 14 56 26 -23 6 -25 10 -25 69 l0 62
49 7 c84 11 131 73 117 151 -11 55 -35 65 -158 65 -60 0 -108 -4 -108 -9z
m190 -31 c32 -32 27 -94 -9 -131 -17 -17 -40 -29 -55 -29 l-26 0 0 90 0 90 35
0 c22 0 43 -8 55 -20z"/>
<path d="M1950 881 c0 -5 9 -11 20 -14 19 -5 20 -14 20 -165 0 -151 -1 -160
-20 -165 -11 -3 -20 -10 -20 -16 0 -7 26 -11 70 -11 70 0 87 10 50 30 -19 10
-20 21 -20 166 0 147 1 156 20 161 43 11 17 23 -50 23 -38 0 -70 -4 -70 -9z"/>
<path d="M3430 850 c6 -11 13 -20 16 -20 2 0 0 9 -6 20 -6 11 -13 20 -16 20
-2 0 0 -9 6 -20z"/>
<path d="M3282 828 c-7 -7 -11 -23 -11 -37 1 -24 2 -24 8 4 5 23 13 31 36 36
28 6 28 7 5 8 -15 0 -31 -4 -38 -11z"/>
<path d="M3172 800 c0 -19 2 -27 5 -17 2 9 2 25 0 35 -3 9 -5 1 -5 -18z"/>
<path d="M3371 784 c0 -11 3 -14 6 -6 3 7 2 16 -1 19 -3 4 -6 -2 -5 -13z"/>
<path d="M3283 750 c2 -8 14 -16 28 -17 19 -1 20 -1 4 4 -11 3 -24 10 -28 17
-6 7 -7 6 -4 -4z"/>
<path d="M3350 750 c-9 -6 -10 -10 -3 -10 6 0 15 5 18 10 8 12 4 12 -15 0z"/>
<path d="M3180 741 c0 -5 -10 -12 -22 -14 -20 -4 -19 -4 5 -6 18 -1 27 4 27
14 0 8 -2 15 -5 15 -3 0 -5 -4 -5 -9z"/>
<path d="M3417 695 c-15 -14 -24 -25 -19 -25 5 0 19 11 32 25 30 32 23 32 -13
0z"/>
<path d="M3311 638 c1 -16 3 -18 6 -6 2 9 12 19 21 21 12 3 10 5 -5 6 -18 1
-23 -4 -22 -21z"/>
<path d="M3188 643 c7 -3 16 -2 19 1 4 3 -2 6 -13 5 -11 0 -14 -3 -6 -6z"/>
<path d="M3115 610 c-10 -11 -16 -22 -14 -24 2 -2 12 7 22 20 22 29 17 32 -8
4z"/>
<path d="M3321 594 c0 -11 3 -14 6 -6 3 7 2 16 -1 19 -3 4 -6 -2 -5 -13z"/>
<path d="M2991 564 c0 -11 3 -14 6 -6 3 7 2 16 -1 19 -3 4 -6 -2 -5 -13z"/>
<path d="M3369 564 c-7 -8 -18 -13 -26 -10 -7 3 -13 -1 -13 -9 0 -21 14 -19
35 5 18 20 27 18 69 -15 19 -15 19 -16 -14 -53 l-35 -37 40 38 40 38 -25 20
c-46 36 -57 40 -71 23z"/>
<path d="M3236 495 c-3 -8 -1 -15 4 -15 6 0 10 7 10 15 0 8 -2 15 -4 15 -2 0
-6 -7 -10 -15z"/>
<path d="M3035 460 c10 -11 20 -20 23 -20 3 0 -3 9 -13 20 -10 11 -20 20 -23
20 -3 0 3 -9 13 -20z"/>
<path d="M3373 435 c3 -11 8 -28 12 -37 6 -16 1 -18 -42 -18 -27 0 -53 4 -58
8 -6 5 -31 7 -57 4 -41 -3 -48 -7 -48 -26 0 -11 -3 -31 -6 -43 -8 -31 18 -31
31 -1 13 29 60 46 83 32 15 -10 17 -31 17 -165 0 -150 -1 -154 -22 -164 -41
-18 -24 -25 57 -25 78 0 105 12 55 24 l-25 6 0 144 0 144 35 21 c35 21 35 21
55 1 11 -11 20 -24 20 -30 0 -5 5 -10 11 -10 6 0 9 17 7 43 l-3 42 -45 0 c-41
0 -47 3 -63 35 -11 19 -17 26 -14 15z m37 -80 c0 -2 -9 -9 -20 -15 -16 -9 -20
-8 -20 5 0 8 9 15 20 15 11 0 20 -2 20 -5z"/>
<path d="M3148 393 c7 -3 16 -2 19 1 4 3 -2 6 -13 5 -11 0 -14 -3 -6 -6z"/>
<path d="M844 223 c-38 -93 -79 -178 -91 -191 -13 -13 -23 -25 -23 -27 0 -3
23 -5 50 -5 50 0 64 11 35 27 -13 8 -13 14 2 51 l16 43 81 -3 81 -3 15 -44
c12 -35 12 -45 3 -48 -31 -11 -8 -23 42 -23 55 0 67 8 42 29 -7 6 -47 89 -87
186 -41 96 -79 175 -86 175 -6 0 -42 -75 -80 -167z m102 2 c18 -40 29 -76 26
-79 -8 -9 -122 -7 -122 2 0 13 54 152 60 152 3 0 19 -34 36 -75z"/>
<path d="M1174 356 c-60 -60 -46 -90 100 -210 40 -32 47 -43 44 -69 -7 -73
-106 -88 -138 -20 -19 41 -40 43 -40 4 0 -58 5 -61 94 -61 87 0 111 11 136 59
25 49 5 87 -76 147 -91 68 -110 93 -93 126 16 30 28 38 61 38 40 0 57 -10 74
-41 20 -39 34 -37 34 6 0 44 -20 55 -100 55 -57 0 -65 -3 -96 -34z"/>
<path d="M1430 358 c0 -14 -3 -33 -6 -42 -4 -11 -1 -16 10 -16 9 0 16 6 16 14
0 22 40 46 77 46 l33 0 -2 -162 c-3 -158 -4 -163 -25 -173 -41 -18 -24 -25 57
-25 78 0 105 12 55 24 l-25 6 0 165 0 165 35 0 c34 0 75 -27 75 -50 0 -5 7
-10 16 -10 11 0 14 5 10 16 -3 9 -6 28 -6 42 l0 27 -160 0 -160 0 0 -27z"/>
<path d="M1884 223 c-38 -93 -79 -178 -91 -191 -13 -13 -23 -25 -23 -27 0 -3
23 -5 50 -5 50 0 64 11 35 27 -13 8 -13 14 2 51 l16 43 81 -3 81 -3 15 -44
c12 -35 12 -45 3 -48 -31 -11 -8 -23 42 -23 55 0 67 8 41 29 -7 6 -46 90 -87
186 -40 96 -78 175 -85 175 -6 0 -42 -75 -80 -167z m102 2 c18 -40 29 -76 26
-79 -8 -9 -122 -7 -122 2 0 13 54 152 60 152 3 0 19 -34 36 -75z"/>
<path d="M4105 381 c-34 -15 -59 -50 -59 -86 0 -41 18 -62 102 -122 64 -46 79
-73 68 -117 -14 -58 -112 -54 -138 5 -18 41 -42 39 -34 -2 3 -17 6 -38 6 -45
0 -11 20 -14 86 -14 81 0 87 1 115 29 21 22 29 39 29 66 0 41 -23 68 -123 142
-46 35 -57 48 -57 71 0 61 79 84 125 37 14 -13 25 -29 25 -35 0 -5 5 -10 10
-10 6 0 10 16 10 35 0 24 -6 37 -19 45 -23 12 -117 12 -146 1z"/>
<path d="M440 370 c0 -5 7 -10 15 -10 26 0 35 -46 35 -168 0 -134 -5 -159 -31
-167 -41 -13 -15 -25 56 -25 77 0 92 8 53 25 -20 9 -23 19 -26 73 l-3 62 36 0
c77 0 135 55 135 127 0 33 -6 50 -25 68 -23 24 -31 25 -135 25 -67 0 -110 -4
-110 -10z m188 -26 c18 -12 22 -25 22 -65 0 -61 -31 -99 -80 -99 l-30 0 0 90
0 90 33 0 c18 0 43 -7 55 -16z"/>
<path d="M2180 371 c0 -5 9 -11 20 -14 19 -5 20 -14 20 -165 0 -152 -1 -161
-20 -167 -44 -14 -16 -25 64 -25 132 0 186 31 186 104 -1 45 -11 64 -51 90
l-26 17 33 33 c43 43 46 85 8 115 -23 18 -41 21 -130 21 -57 0 -104 -4 -104
-9z m180 -21 c26 -14 33 -55 16 -89 -16 -31 -34 -41 -72 -41 -23 0 -24 3 -24
70 l0 70 31 0 c17 0 39 -4 49 -10z m-25 -164 c68 -29 86 -109 34 -149 -22 -15
-33 -17 -55 -10 -28 9 -29 11 -32 91 -3 89 -2 91 53 68z"/>
<path d="M2510 371 c0 -5 9 -11 20 -14 19 -5 20 -14 20 -161 0 -145 -1 -157
-20 -168 -34 -22 -23 -28 50 -28 67 0 91 12 51 25 -26 8 -31 33 -31 167 0 122
9 168 35 168 8 0 15 5 15 10 0 6 -30 10 -70 10 -38 0 -70 -4 -70 -9z"/>
<path d="M2695 370 c3 -5 13 -10 20 -10 22 0 26 -33 23 -185 -3 -133 -4 -140
-25 -151 -13 -6 -20 -14 -16 -17 3 -4 64 -7 135 -7 l128 0 0 29 c0 16 3 36 6
45 4 11 1 16 -10 16 -9 0 -16 -6 -16 -14 0 -26 -30 -46 -71 -46 -78 0 -79 3
-79 160 0 152 3 170 31 170 10 0 19 5 19 10 0 6 -32 10 -76 10 -47 0 -73 -4
-69 -10z"/>
<path d="M2990 370 c0 -5 9 -10 20 -10 28 0 31 -24 28 -185 -3 -134 -4 -140
-25 -150 -40 -17 -25 -25 52 -25 77 0 92 8 53 25 -22 10 -23 16 -26 150 -3
161 0 185 28 185 11 0 20 5 20 10 0 6 -32 10 -75 10 -43 0 -75 -4 -75 -10z"/>
<path d="M3540 370 c0 -5 8 -10 19 -10 26 0 31 -25 31 -177 0 -106 -3 -135
-16 -147 -8 -9 -20 -16 -25 -16 -5 0 -9 -4 -9 -10 0 -11 133 -14 143 -3 4 3
-3 11 -16 17 -21 11 -22 17 -25 170 -2 151 -2 158 18 163 43 11 17 23 -50 23
-40 0 -70 -4 -70 -10z"/>
<path d="M3730 371 c0 -5 9 -11 20 -14 19 -5 20 -14 20 -165 0 -152 -1 -161
-20 -167 -50 -16 -11 -25 110 -25 117 0 130 2 130 18 0 9 3 27 6 40 8 30 -18
30 -31 -1 -8 -18 -19 -23 -58 -25 -68 -4 -77 7 -77 89 l0 69 51 0 c42 0 52 -3
56 -20 10 -37 23 -20 23 30 0 54 -8 62 -28 30 -9 -15 -23 -20 -57 -20 l-45 0
0 75 0 75 46 0 c51 0 84 -14 84 -35 0 -8 7 -15 15 -15 16 0 18 12 9 48 -6 21
-10 22 -130 22 -68 0 -124 -4 -124 -9z"/>
</g>
</svg>
